<svg width="12" height="14" viewBox="0 0 12 14" fill="none" xmlns="http://www.w3.org/2000/svg">
<path d="M0.304688 5C0.126953 5 0 5.15234 0 5.30469V11.9062C0 12.5918 0.533203 13.125 1.21875 13.125H10.1562C10.8164 13.125 11.375 12.5918 11.375 11.9062V5.30469C11.375 5.15234 11.2227 5 11.0703 5H0.304688ZM11.375 3.88281V2.96875C11.375 2.30859 10.8164 1.75 10.1562 1.75H8.9375V0.429688C8.9375 0.277344 8.78516 0.125 8.63281 0.125H7.61719C7.43945 0.125 7.3125 0.277344 7.3125 0.429688V1.75H4.0625V0.429688C4.0625 0.277344 3.91016 0.125 3.75781 0.125H2.74219C2.56445 0.125 2.4375 0.277344 2.4375 0.429688V1.75H1.21875C0.533203 1.75 0 2.30859 0 2.96875V3.88281C0 4.06055 0.126953 4.1875 0.304688 4.1875H11.0703C11.2227 4.1875 11.375 4.06055 11.375 3.88281Z" fill="#4C5A66"/>
</svg>
