<svg width="14" height="14" viewBox="0 0 14 14" fill="none" xmlns="http://www.w3.org/2000/svg">
<path d="M0.5 6.54883C0.5 6.87891 0.626953 7.18359 0.855469 7.41211L6.21289 12.7695C6.69531 13.252 7.48242 13.252 7.93945 12.7695L13.1191 7.58984C13.6016 7.13281 13.6016 6.3457 13.1191 5.86328L7.76172 0.505859C7.5332 0.277344 7.22852 0.125 6.89844 0.125H1.71875C1.0332 0.125 0.5 0.683594 0.5 1.34375V6.54883ZM3.34375 1.75C4.00391 1.75 4.5625 2.30859 4.5625 2.96875C4.5625 3.6543 4.00391 4.1875 3.34375 4.1875C2.6582 4.1875 2.125 3.6543 2.125 2.96875C2.125 2.30859 2.6582 1.75 3.34375 1.75Z" fill="#FE7A15"/>
</svg>
