<svg width="12" height="14" viewBox="0 0 12 14" fill="none" xmlns="http://www.w3.org/2000/svg">
<path d="M5.6875 6.625C7.46484 6.625 8.9375 5.17773 8.9375 3.375C8.9375 1.59766 7.46484 0.125 5.6875 0.125C3.88477 0.125 2.4375 1.59766 2.4375 3.375C2.4375 5.17773 3.88477 6.625 5.6875 6.625ZM7.94727 7.4375H7.51562C6.95703 7.7168 6.34766 7.84375 5.6875 7.84375C5.02734 7.84375 4.39258 7.7168 3.83398 7.4375H3.40234C1.52344 7.4375 0 8.98633 0 10.8652V11.9062C0 12.5918 0.533203 13.125 1.21875 13.125H10.1562C10.8164 13.125 11.375 12.5918 11.375 11.9062V10.8652C11.375 8.98633 9.82617 7.4375 7.94727 7.4375Z" fill="#4C5A66"/>
</svg>
